<?xml version="1.0" standalone="no"?>
<!DOCTYPE svg PUBLIC "-//W3C//DTD SVG 20010904//EN"
 "http://www.w3.org/TR/2001/REC-SVG-20010904/DTD/svg10.dtd">
<svg version="1.0" xmlns="http://www.w3.org/2000/svg"
 width="520.000000pt" height="520.000000pt" viewBox="0 0 520.000000 520.000000"
 preserveAspectRatio="xMidYMid meet">
<metadata>
Created by potrace 1.11, written by Peter Selinger 2001-2013
</metadata>
<g transform="translate(0.000000,520.000000) scale(0.100000,-0.100000)"
fill="#000000" stroke="none">
<path d="M2390 5194 c-170 -19 -298 -42 -425 -74 -904 -230 -1627 -957 -1849
-1860 -51 -207 -67 -328 -73 -550 -20 -708 248 -1381 747 -1880 503 -503 1180
-771 1890 -747 480 16 922 154 1310 408 394 257 682 580 896 1004 196 390 284
787 271 1224 -7 214 -23 338 -73 541 -246 998 -1089 1762 -2114 1915 -109 16
-493 29 -580 19z m-250 -458 l365 -144 3 -496 2 -496 -421 -337 -421 -337
-492 163 c-270 90 -496 168 -502 175 -7 6 -40 130 -73 276 -34 146 -64 272
-67 281 -5 17 82 155 179 284 78 103 319 344 422 422 178 134 368 244 550 320
44 18 82 33 85 33 3 0 170 -65 370 -144z m1399 99 c434 -183 834 -526 1086
-930 l44 -70 -67 -288 -67 -287 -501 -167 -502 -167 -421 337 -421 337 2 496
3 496 355 143 c195 79 361 144 369 144 7 1 61 -19 120 -44z m-2429 -1916 c267
-89 489 -165 493 -169 5 -4 65 -232 133 -505 l125 -497 -243 -324 c-178 -238
-248 -324 -263 -324 -11 0 -161 23 -334 50 -173 28 -318 50 -322 50 -15 0
-166 236 -226 355 -146 289 -226 570 -254 900 l-12 134 204 245 c112 135 206
246 209 246 3 0 223 -73 490 -161z m3680 -87 l203 -243 -12 -134 c-28 -330
-108 -611 -254 -900 -60 -119 -211 -355 -226 -355 -4 0 -149 -22 -322 -50
-173 -27 -322 -50 -331 -50 -17 0 -57 51 -356 446 l-153 202 121 483 c66 266
124 493 128 503 7 16 116 56 493 182 266 90 489 162 495 161 7 -1 103 -111
214 -245z m-1353 -1517 c134 -176 243 -323 243 -328 0 -4 -79 -146 -177 -316
l-176 -309 -116 -31 c-387 -101 -799 -106 -1171 -12 l-104 26 -203 318 c-112
175 -203 322 -203 328 0 5 108 153 240 329 l240 320 592 -2 592 -3 243 -320z"/>
<path d="M1347 4414 c-4 -4 -7 -245 -7 -536 l0 -528 110 0 110 0 0 230 0 230
140 0 140 0 0 100 0 100 -140 0 -140 0 0 100 0 99 138 3 137 3 0 100 0 100
-241 3 c-132 1 -243 -1 -247 -4z"/>
<path d="M3387 4414 c-4 -4 -7 -245 -7 -536 l0 -528 110 0 110 0 0 230 0 230
140 0 140 0 0 100 0 100 -140 0 -140 0 0 100 0 99 138 3 137 3 0 100 0 100
-241 3 c-132 1 -243 -1 -247 -4z"/>
<path d="M707 2684 c-4 -4 -7 -245 -7 -536 l0 -528 110 0 110 0 0 230 0 230
140 0 140 0 0 100 0 100 -140 0 -140 0 0 100 0 99 138 3 137 3 0 100 0 100
-241 3 c-132 1 -243 -1 -247 -4z"/>
<path d="M4027 2684 c-4 -4 -7 -245 -7 -536 l0 -528 110 0 110 0 0 230 0 230
140 0 140 0 0 100 0 100 -140 0 -140 0 0 100 0 99 138 3 137 3 0 100 0 100
-241 3 c-132 1 -243 -1 -247 -4z"/>
<path d="M2367 1454 c-4 -4 -7 -245 -7 -536 l0 -528 110 0 110 0 0 230 0 230
140 0 140 0 0 100 0 100 -140 0 -140 0 0 100 0 99 138 3 137 3 0 100 0 100
-241 3 c-132 1 -243 -1 -247 -4z"/>
</g>
</svg>
